HIERARCHY
ROOT RootJoint
{
    OFFSET   0.000000   0.000000   0.000000
    CHANNELS 6 Xposition Yposition Zposition Xrotation Yrotation Zrotation
    JOINT pelvis_lowerback
    {
        OFFSET   0.000000   0.093605   0.000000
        CHANNELS 3 Xrotation Yrotation Zrotation
        JOINT lowerback_torso
        {
            OFFSET   0.000000   0.100000   0.000000
            CHANNELS 3 Xrotation Yrotation Zrotation
            JOINT torso_head
            {
                OFFSET   0.000000   0.282350   0.000000
                CHANNELS 3 Xrotation Yrotation Zrotation
                End Site
                {
                    OFFSET   0.000000   0.192650   0.000000
                }
            }
            JOINT rTorso_Clavicle
            {
                OFFSET  -0.001000   0.157500   0.000000
                CHANNELS 3 Xrotation Yrotation Zrotation
                JOINT rShoulder
                {
                    OFFSET  -0.117647   0.000000   0.000000
                    CHANNELS 3 Xrotation Yrotation Zrotation
                    JOINT rElbow
                    {
                        OFFSET  -0.245000   0.000000   0.000000
                        CHANNELS 3 Xrotation Yrotation Zrotation
                        JOINT rWrist
                        {
                            OFFSET  -0.240000   0.000000   0.000000
                            CHANNELS 3 Xrotation Yrotation Zrotation
                            End Site
                            {
                                OFFSET  -0.116353  -0.002500   0.000000
                            }
                        }
                    }
                }
            }
            JOINT lTorso_Clavicle
            {
                OFFSET   0.001000   0.157500   0.000000
                CHANNELS 3 Xrotation Yrotation Zrotation
                JOINT lShoulder
                {
                    OFFSET   0.117647   0.000000   0.000000
                    CHANNELS 3 Xrotation Yrotation Zrotation
                    JOINT lElbow
                    {
                        OFFSET   0.245000   0.000000   0.000000
                        CHANNELS 3 Xrotation Yrotation Zrotation
                        JOINT lWrist
                        {
                            OFFSET   0.240000   0.000000   0.000000
                            CHANNELS 3 Xrotation Yrotation Zrotation
                            End Site
                            {
                                OFFSET   0.116353  -0.002500   0.000000
                            }
                        }
                    }
                }
            }
        }
    }
    JOINT rHip
    {
        OFFSET  -0.100000  -0.051395   0.000000
        CHANNELS 3 Xrotation Yrotation Zrotation
        JOINT rKnee
        {
            OFFSET   0.000000  -0.410000   0.000000
            CHANNELS 3 Xrotation Yrotation Zrotation
            JOINT rAnkle
            {
                OFFSET   0.000000  -0.390000   0.000000
                CHANNELS 3 Xrotation Yrotation Zrotation
                JOINT rToeJoint
                {
                    OFFSET   0.000000  -0.050000   0.130000
                    CHANNELS 3 Xrotation Yrotation Zrotation
                    End Site
                    {
                        OFFSET  -0.010000   0.002000   0.060000
                    }
                }
            }
        }
    }
    JOINT lHip
    {
        OFFSET   0.100000  -0.051395   0.000000
        CHANNELS 3 Xrotation Yrotation Zrotation
        JOINT lKnee
        {
            OFFSET   0.000000  -0.410000   0.000000
            CHANNELS 3 Xrotation Yrotation Zrotation
            JOINT lAnkle
            {
                OFFSET   0.000000  -0.390000   0.000000
                CHANNELS 3 Xrotation Yrotation Zrotation
                JOINT lToeJoint
                {
                    OFFSET   0.000000  -0.050000   0.130000
                    CHANNELS 3 Xrotation Yrotation Zrotation
                    End Site
                    {
                        OFFSET   0.010000   0.002000   0.060000
                    }
                }
            }
        }
    }
}
MOTION
Frames: 5
Frame Time:   0.008333
 -1.673330   0.199201   4.216628  68.731151 -52.392967 -60.235950  16.210419 -50.982227  27.895188  -6.955440 -33.342073   1.524649  25.309092 -11.433476   5.260717  17.874977  -3.786788 -20.901898 -21.367765   2.159462  15.715614  -0.005656  61.307446   0.014960 -11.397642   7.857739  11.656147  13.665561 -38.662323  18.415894 -122.119463 -62.003787 -111.139579  -0.049129 -64.837583  -0.021535   1.762989  -2.811673 -72.738504 -37.329026   6.786921   2.401684  32.887895   0.004764  -0.001678   6.510918  -3.100582  27.418267  -4.562327  -0.004658   0.001675 -14.204699 -26.810357  24.240371  -0.000046  -0.000002   0.000004 -19.799219  -5.383023   1.581273  -3.061329   0.026998  -0.035321
 -1.670904   0.199521   4.215277  68.061185 -53.145946 -60.641516  16.023608 -51.383255  27.834049  -6.673313 -34.166369   1.839055  24.763442 -11.695105   5.705567  17.537116  -4.249710 -20.669939 -21.641729   1.230387  15.510000  -0.007789  61.547530   0.015163 -11.487231   7.849215  12.250594  13.568350 -39.420082  18.822142 -123.177600 -61.204630 -112.028140  -0.042936 -63.051779  -0.010183   0.002051  -1.854585 -73.853858 -38.277042   7.191277   2.794759  34.355666   0.002247  -0.003912   4.945860  -2.893290  26.707873  -4.702785  -0.004368   0.000947 -14.418926 -27.194485  24.487284   0.428232  -0.000348  -0.004092 -20.235298  -4.938665   0.840359  -2.102719   0.029672  -0.033385
 -1.668516   0.200149   4.213852  67.352882 -53.889695 -61.073885  15.815405 -51.813779  27.631315  -6.576892 -35.001117   1.953936  24.116940 -11.988990   6.019902  17.233417  -4.659582 -20.463003 -21.898177   0.376570  15.296963  -0.010571  61.786616   0.016010 -11.488056   7.449603  12.824019  13.577997 -40.230116  19.333733 -124.177812 -60.492543 -112.920180  -0.042121 -61.406956  -0.008064  -1.390936  -6.115913 -75.953849 -39.214388   7.553756   3.244316  35.754552  -0.000570  -0.005592   3.480279  -2.678145  26.051277  -4.877096  -0.004119   0.000308 -14.654656 -27.567793  24.742756   0.892506  -0.000825  -0.007644 -20.633901  -4.514920   0.151298  -1.295129   0.029970  -0.031333
 -1.665964   0.200712   4.212480  66.523308 -54.612425 -61.552256  15.663542 -52.228993  27.554760  -6.318352 -35.824912   2.230760  23.589903 -12.223023   6.379110  16.843928  -5.219353 -20.355297 -22.174311  -0.516720  15.013631  -0.011601  61.981306   0.015380 -11.572958   7.407400  13.109106  13.402932 -40.941069  19.629810 -125.153569 -59.717582 -113.671996  -0.036570 -59.837241  -0.000937  -2.901489  -5.139768 -76.493909 -40.072884   7.882765   3.688289  37.053969  -0.003422  -0.007498   2.115121  -2.459942  25.444811  -5.031182  -0.003708  -0.000031 -14.854406 -27.889766  24.948593   1.351331  -0.001224  -0.010457 -20.982438  -4.100675  -0.488641  -0.373612   0.030778  -0.030595
 -1.663234   0.201392   4.211104  65.542558 -55.341430 -62.094919  15.516028 -52.660819  27.455355  -6.145753 -36.631688   2.406197  23.102552 -12.445224   6.695509  16.491583  -5.697193 -20.297941 -22.443601  -1.303146  14.722954  -0.012800  62.198779   0.014998 -11.577657   7.050400  13.379588  13.322800 -41.687284  20.020819 -126.101544 -59.032531 -114.456645  -0.036036 -58.416638   0.001346  -4.028561  -9.145038 -78.052311 -40.895856   8.180734   4.136510  38.269863  -0.006364  -0.009709   0.843354  -2.241695  24.884766  -5.171590  -0.003209  -0.000149 -15.019895 -28.171766  25.132887   1.803143  -0.001640  -0.012828 -21.284481  -3.704327  -1.086555   0.671205   0.031937  -0.031541
